<mxfile host="app.diagrams.net" modified="2022-10-05T12:33:00.763Z" agent="5.0 (Windows NT 6.3; Win64; x64) AppleWebKit/537.36 (KHTML, like Gecko) Chrome/105.0.0.0 Safari/537.36" etag="kcAsK7py-Coy3Co29742" version="20.4.0" type="github">
  <diagram name="Page-1" id="2a216829-ef6e-dabb-86c1-c78162f3ba2b">
    <mxGraphModel dx="2016" dy="507" grid="1" gridSize="10" guides="1" tooltips="1" connect="1" arrows="1" fold="1" page="1" pageScale="1" pageWidth="850" pageHeight="1100" background="none" math="0" shadow="0">
      <root>
        <mxCell id="0" />
        <mxCell id="1" parent="0" />
        <mxCell id="7Kr13zW_n3Wc-PNVk7xG-3" style="edgeStyle=orthogonalEdgeStyle;rounded=0;orthogonalLoop=1;jettySize=auto;html=1;" edge="1" parent="1" source="7Kr13zW_n3Wc-PNVk7xG-1" target="7Kr13zW_n3Wc-PNVk7xG-2">
          <mxGeometry relative="1" as="geometry" />
        </mxCell>
        <mxCell id="7Kr13zW_n3Wc-PNVk7xG-1" value="Production Plan" style="shape=mxgraph.bpmn.data;labelPosition=center;verticalLabelPosition=bottom;align=center;verticalAlign=top;whiteSpace=wrap;size=0;html=1;bpmnTransferType=input;" vertex="1" parent="1">
          <mxGeometry x="10" y="400" width="40" height="60" as="geometry" />
        </mxCell>
        <mxCell id="7Kr13zW_n3Wc-PNVk7xG-6" value="" style="edgeStyle=orthogonalEdgeStyle;rounded=0;orthogonalLoop=1;jettySize=auto;html=1;" edge="1" parent="1" source="7Kr13zW_n3Wc-PNVk7xG-2" target="7Kr13zW_n3Wc-PNVk7xG-5">
          <mxGeometry relative="1" as="geometry" />
        </mxCell>
        <mxCell id="7Kr13zW_n3Wc-PNVk7xG-2" value="Production Manager" style="rounded=1;whiteSpace=wrap;html=1;" vertex="1" parent="1">
          <mxGeometry x="80" y="530" width="120" height="60" as="geometry" />
        </mxCell>
        <mxCell id="7Kr13zW_n3Wc-PNVk7xG-8" value="" style="edgeStyle=orthogonalEdgeStyle;rounded=0;orthogonalLoop=1;jettySize=auto;html=1;" edge="1" parent="1" source="7Kr13zW_n3Wc-PNVk7xG-5" target="7Kr13zW_n3Wc-PNVk7xG-7">
          <mxGeometry relative="1" as="geometry" />
        </mxCell>
        <mxCell id="7Kr13zW_n3Wc-PNVk7xG-5" value="&lt;i&gt;Is Material Available&lt;/i&gt;" style="rhombus;whiteSpace=wrap;html=1;rounded=1;" vertex="1" parent="1">
          <mxGeometry x="300" y="520" width="90" height="80" as="geometry" />
        </mxCell>
        <mxCell id="7Kr13zW_n3Wc-PNVk7xG-10" value="" style="edgeStyle=orthogonalEdgeStyle;rounded=0;orthogonalLoop=1;jettySize=auto;html=1;" edge="1" parent="1" source="7Kr13zW_n3Wc-PNVk7xG-7" target="7Kr13zW_n3Wc-PNVk7xG-9">
          <mxGeometry relative="1" as="geometry" />
        </mxCell>
        <mxCell id="7Kr13zW_n3Wc-PNVk7xG-7" value="Send Production Plan Items To Printing Work Center" style="whiteSpace=wrap;html=1;rounded=1;" vertex="1" parent="1">
          <mxGeometry x="455" y="530" width="120" height="60" as="geometry" />
        </mxCell>
        <mxCell id="7Kr13zW_n3Wc-PNVk7xG-18" value="" style="edgeStyle=orthogonalEdgeStyle;rounded=0;orthogonalLoop=1;jettySize=auto;html=1;" edge="1" parent="1" source="7Kr13zW_n3Wc-PNVk7xG-9" target="7Kr13zW_n3Wc-PNVk7xG-17">
          <mxGeometry relative="1" as="geometry" />
        </mxCell>
        <mxCell id="7Kr13zW_n3Wc-PNVk7xG-52" style="edgeStyle=orthogonalEdgeStyle;rounded=0;orthogonalLoop=1;jettySize=auto;html=1;entryX=1;entryY=0.5;entryDx=0;entryDy=0;" edge="1" parent="1" source="7Kr13zW_n3Wc-PNVk7xG-9" target="7Kr13zW_n3Wc-PNVk7xG-43">
          <mxGeometry relative="1" as="geometry">
            <mxPoint x="220" y="710" as="targetPoint" />
            <Array as="points">
              <mxPoint x="650" y="500" />
              <mxPoint x="220" y="500" />
              <mxPoint x="220" y="700" />
            </Array>
          </mxGeometry>
        </mxCell>
        <mxCell id="7Kr13zW_n3Wc-PNVk7xG-9" value="Product Is&lt;br&gt;&amp;nbsp;OK" style="rhombus;whiteSpace=wrap;html=1;rounded=1;" vertex="1" parent="1">
          <mxGeometry x="610" y="520" width="80" height="80" as="geometry" />
        </mxCell>
        <mxCell id="7Kr13zW_n3Wc-PNVk7xG-15" value="No" style="text;html=1;align=center;verticalAlign=middle;resizable=0;points=[];autosize=1;strokeColor=none;fillColor=none;" vertex="1" parent="1">
          <mxGeometry x="650" y="500" width="40" height="30" as="geometry" />
        </mxCell>
        <mxCell id="7Kr13zW_n3Wc-PNVk7xG-21" value="" style="edgeStyle=orthogonalEdgeStyle;rounded=0;orthogonalLoop=1;jettySize=auto;html=1;" edge="1" parent="1" source="7Kr13zW_n3Wc-PNVk7xG-17" target="7Kr13zW_n3Wc-PNVk7xG-20">
          <mxGeometry relative="1" as="geometry" />
        </mxCell>
        <mxCell id="7Kr13zW_n3Wc-PNVk7xG-24" value="" style="edgeStyle=orthogonalEdgeStyle;rounded=0;orthogonalLoop=1;jettySize=auto;html=1;" edge="1" parent="1" source="7Kr13zW_n3Wc-PNVk7xG-17" target="7Kr13zW_n3Wc-PNVk7xG-23">
          <mxGeometry relative="1" as="geometry" />
        </mxCell>
        <mxCell id="7Kr13zW_n3Wc-PNVk7xG-17" value="Product Need Enboss" style="rhombus;whiteSpace=wrap;html=1;rounded=1;" vertex="1" parent="1">
          <mxGeometry x="600" y="650" width="100" height="100" as="geometry" />
        </mxCell>
        <mxCell id="7Kr13zW_n3Wc-PNVk7xG-19" value="Yes" style="text;html=1;align=center;verticalAlign=middle;resizable=0;points=[];autosize=1;strokeColor=none;fillColor=none;" vertex="1" parent="1">
          <mxGeometry x="640" y="595" width="40" height="30" as="geometry" />
        </mxCell>
        <mxCell id="7Kr13zW_n3Wc-PNVk7xG-27" value="" style="edgeStyle=orthogonalEdgeStyle;rounded=0;orthogonalLoop=1;jettySize=auto;html=1;" edge="1" parent="1" source="7Kr13zW_n3Wc-PNVk7xG-20" target="7Kr13zW_n3Wc-PNVk7xG-26">
          <mxGeometry relative="1" as="geometry" />
        </mxCell>
        <mxCell id="7Kr13zW_n3Wc-PNVk7xG-20" value="Send Semi-Finished&amp;nbsp;&lt;br&gt;Good To Enboss Machine" style="whiteSpace=wrap;html=1;rounded=1;" vertex="1" parent="1">
          <mxGeometry x="420" y="670" width="120" height="60" as="geometry" />
        </mxCell>
        <mxCell id="7Kr13zW_n3Wc-PNVk7xG-22" value="Yes" style="text;html=1;align=center;verticalAlign=middle;resizable=0;points=[];autosize=1;strokeColor=none;fillColor=none;" vertex="1" parent="1">
          <mxGeometry x="560" y="665" width="40" height="30" as="geometry" />
        </mxCell>
        <mxCell id="7Kr13zW_n3Wc-PNVk7xG-54" value="" style="edgeStyle=orthogonalEdgeStyle;rounded=0;orthogonalLoop=1;jettySize=auto;html=1;" edge="1" parent="1" source="7Kr13zW_n3Wc-PNVk7xG-23" target="7Kr13zW_n3Wc-PNVk7xG-53">
          <mxGeometry relative="1" as="geometry" />
        </mxCell>
        <mxCell id="7Kr13zW_n3Wc-PNVk7xG-23" value="Send To Cutting Machine" style="whiteSpace=wrap;html=1;rounded=1;" vertex="1" parent="1">
          <mxGeometry x="590" y="795" width="120" height="60" as="geometry" />
        </mxCell>
        <mxCell id="7Kr13zW_n3Wc-PNVk7xG-25" value="No" style="text;html=1;align=center;verticalAlign=middle;resizable=0;points=[];autosize=1;strokeColor=none;fillColor=none;" vertex="1" parent="1">
          <mxGeometry x="650" y="765" width="40" height="30" as="geometry" />
        </mxCell>
        <mxCell id="7Kr13zW_n3Wc-PNVk7xG-31" style="edgeStyle=orthogonalEdgeStyle;rounded=0;orthogonalLoop=1;jettySize=auto;html=1;entryX=0.5;entryY=0;entryDx=0;entryDy=0;" edge="1" parent="1" source="7Kr13zW_n3Wc-PNVk7xG-26" target="7Kr13zW_n3Wc-PNVk7xG-23">
          <mxGeometry relative="1" as="geometry">
            <Array as="points">
              <mxPoint x="290" y="760" />
              <mxPoint x="650" y="760" />
            </Array>
          </mxGeometry>
        </mxCell>
        <mxCell id="7Kr13zW_n3Wc-PNVk7xG-44" value="" style="edgeStyle=orthogonalEdgeStyle;rounded=0;orthogonalLoop=1;jettySize=auto;html=1;" edge="1" parent="1" source="7Kr13zW_n3Wc-PNVk7xG-26" target="7Kr13zW_n3Wc-PNVk7xG-43">
          <mxGeometry relative="1" as="geometry">
            <Array as="points">
              <mxPoint x="200" y="700" />
              <mxPoint x="200" y="700" />
            </Array>
          </mxGeometry>
        </mxCell>
        <mxCell id="7Kr13zW_n3Wc-PNVk7xG-26" value="Product Is OK" style="rhombus;whiteSpace=wrap;html=1;rounded=1;" vertex="1" parent="1">
          <mxGeometry x="240" y="655" width="100" height="90" as="geometry" />
        </mxCell>
        <mxCell id="7Kr13zW_n3Wc-PNVk7xG-32" value="Yes" style="text;html=1;align=center;verticalAlign=middle;resizable=0;points=[];autosize=1;strokeColor=none;fillColor=none;" vertex="1" parent="1">
          <mxGeometry x="310" y="735" width="40" height="30" as="geometry" />
        </mxCell>
        <mxCell id="7Kr13zW_n3Wc-PNVk7xG-36" value="No" style="text;html=1;align=center;verticalAlign=middle;resizable=0;points=[];autosize=1;strokeColor=none;fillColor=none;" vertex="1" parent="1">
          <mxGeometry x="190" y="665" width="40" height="30" as="geometry" />
        </mxCell>
        <mxCell id="7Kr13zW_n3Wc-PNVk7xG-46" value="" style="edgeStyle=orthogonalEdgeStyle;rounded=0;orthogonalLoop=1;jettySize=auto;html=1;" edge="1" parent="1" source="7Kr13zW_n3Wc-PNVk7xG-43" target="7Kr13zW_n3Wc-PNVk7xG-45">
          <mxGeometry relative="1" as="geometry" />
        </mxCell>
        <mxCell id="7Kr13zW_n3Wc-PNVk7xG-50" value="" style="edgeStyle=orthogonalEdgeStyle;rounded=0;orthogonalLoop=1;jettySize=auto;html=1;" edge="1" parent="1" source="7Kr13zW_n3Wc-PNVk7xG-43" target="7Kr13zW_n3Wc-PNVk7xG-49">
          <mxGeometry relative="1" as="geometry" />
        </mxCell>
        <mxCell id="7Kr13zW_n3Wc-PNVk7xG-43" value="Is Wasted" style="rhombus;whiteSpace=wrap;html=1;rounded=1;" vertex="1" parent="1">
          <mxGeometry x="70" y="660" width="80" height="80" as="geometry" />
        </mxCell>
        <mxCell id="7Kr13zW_n3Wc-PNVk7xG-48" style="edgeStyle=orthogonalEdgeStyle;rounded=0;orthogonalLoop=1;jettySize=auto;html=1;" edge="1" parent="1" source="7Kr13zW_n3Wc-PNVk7xG-45" target="7Kr13zW_n3Wc-PNVk7xG-25">
          <mxGeometry relative="1" as="geometry" />
        </mxCell>
        <mxCell id="7Kr13zW_n3Wc-PNVk7xG-45" value="Mark As Second Grade Product" style="whiteSpace=wrap;html=1;rounded=1;" vertex="1" parent="1">
          <mxGeometry x="50" y="790" width="120" height="60" as="geometry" />
        </mxCell>
        <mxCell id="7Kr13zW_n3Wc-PNVk7xG-47" value="No" style="text;html=1;align=center;verticalAlign=middle;resizable=0;points=[];autosize=1;strokeColor=none;fillColor=none;" vertex="1" parent="1">
          <mxGeometry x="100" y="735" width="40" height="30" as="geometry" />
        </mxCell>
        <mxCell id="7Kr13zW_n3Wc-PNVk7xG-66" style="edgeStyle=orthogonalEdgeStyle;rounded=0;orthogonalLoop=1;jettySize=auto;html=1;entryX=0.5;entryY=0;entryDx=0;entryDy=0;" edge="1" parent="1" source="7Kr13zW_n3Wc-PNVk7xG-49" target="7Kr13zW_n3Wc-PNVk7xG-62">
          <mxGeometry relative="1" as="geometry">
            <Array as="points">
              <mxPoint x="-90" y="890" />
              <mxPoint x="97" y="890" />
            </Array>
          </mxGeometry>
        </mxCell>
        <mxCell id="7Kr13zW_n3Wc-PNVk7xG-49" value="Transfer To Waste Warehouse" style="whiteSpace=wrap;html=1;rounded=1;" vertex="1" parent="1">
          <mxGeometry x="-150" y="760" width="120" height="60" as="geometry" />
        </mxCell>
        <mxCell id="7Kr13zW_n3Wc-PNVk7xG-51" value="Yes" style="text;html=1;align=center;verticalAlign=middle;resizable=0;points=[];autosize=1;strokeColor=none;fillColor=none;" vertex="1" parent="1">
          <mxGeometry x="20" y="665" width="40" height="30" as="geometry" />
        </mxCell>
        <mxCell id="7Kr13zW_n3Wc-PNVk7xG-55" style="edgeStyle=orthogonalEdgeStyle;rounded=0;orthogonalLoop=1;jettySize=auto;html=1;" edge="1" parent="1" source="7Kr13zW_n3Wc-PNVk7xG-53">
          <mxGeometry relative="1" as="geometry">
            <mxPoint x="200" y="700" as="targetPoint" />
          </mxGeometry>
        </mxCell>
        <mxCell id="7Kr13zW_n3Wc-PNVk7xG-58" value="" style="edgeStyle=orthogonalEdgeStyle;rounded=0;orthogonalLoop=1;jettySize=auto;html=1;" edge="1" parent="1" source="7Kr13zW_n3Wc-PNVk7xG-53" target="7Kr13zW_n3Wc-PNVk7xG-57">
          <mxGeometry relative="1" as="geometry" />
        </mxCell>
        <mxCell id="7Kr13zW_n3Wc-PNVk7xG-53" value="If Cutting OK&amp;nbsp;" style="rhombus;whiteSpace=wrap;html=1;rounded=1;" vertex="1" parent="1">
          <mxGeometry x="610" y="910" width="110" height="80" as="geometry" />
        </mxCell>
        <mxCell id="7Kr13zW_n3Wc-PNVk7xG-56" value="NO" style="text;html=1;align=center;verticalAlign=middle;resizable=0;points=[];autosize=1;strokeColor=none;fillColor=none;" vertex="1" parent="1">
          <mxGeometry x="560" y="925" width="40" height="30" as="geometry" />
        </mxCell>
        <mxCell id="7Kr13zW_n3Wc-PNVk7xG-61" value="" style="edgeStyle=orthogonalEdgeStyle;rounded=0;orthogonalLoop=1;jettySize=auto;html=1;" edge="1" parent="1" source="7Kr13zW_n3Wc-PNVk7xG-57" target="7Kr13zW_n3Wc-PNVk7xG-60">
          <mxGeometry relative="1" as="geometry" />
        </mxCell>
        <mxCell id="7Kr13zW_n3Wc-PNVk7xG-57" value="Rool The Product By Batch Size" style="whiteSpace=wrap;html=1;rounded=1;" vertex="1" parent="1">
          <mxGeometry x="490" y="1040" width="120" height="60" as="geometry" />
        </mxCell>
        <mxCell id="7Kr13zW_n3Wc-PNVk7xG-59" value="Yes&lt;br&gt;" style="text;html=1;align=center;verticalAlign=middle;resizable=0;points=[];autosize=1;strokeColor=none;fillColor=none;" vertex="1" parent="1">
          <mxGeometry x="660" y="985" width="40" height="30" as="geometry" />
        </mxCell>
        <mxCell id="7Kr13zW_n3Wc-PNVk7xG-63" value="" style="edgeStyle=orthogonalEdgeStyle;rounded=0;orthogonalLoop=1;jettySize=auto;html=1;" edge="1" parent="1" source="7Kr13zW_n3Wc-PNVk7xG-60" target="7Kr13zW_n3Wc-PNVk7xG-62">
          <mxGeometry relative="1" as="geometry" />
        </mxCell>
        <mxCell id="7Kr13zW_n3Wc-PNVk7xG-60" value="Move product To Products Warehouse" style="whiteSpace=wrap;html=1;rounded=1;" vertex="1" parent="1">
          <mxGeometry x="285" y="1030" width="120" height="60" as="geometry" />
        </mxCell>
        <mxCell id="7Kr13zW_n3Wc-PNVk7xG-62" value="End" style="ellipse;whiteSpace=wrap;html=1;rounded=1;" vertex="1" parent="1">
          <mxGeometry x="70" y="990" width="55" height="50" as="geometry" />
        </mxCell>
      </root>
    </mxGraphModel>
  </diagram>
</mxfile>
